<?xml version="1.0" encoding="utf-8"?>
<!-- Generator: Adobe Illustrator 17.0.0, SVG Export Plug-In . SVG Version: 6.00 Build 0)  -->
<!DOCTYPE svg PUBLIC "-//W3C//DTD SVG 1.1//EN" "http://www.w3.org/Graphics/SVG/1.1/DTD/svg11.dtd">
<svg version="1.1" id="图层_1" xmlns="http://www.w3.org/2000/svg" xmlns:xlink="http://www.w3.org/1999/xlink" x="0px" y="0px"
	 width="60px" height="60px" viewBox="0 0 60 60" enable-background="new 0 0 60 60" xml:space="preserve">
<linearGradient id="SVGID_1_" gradientUnits="userSpaceOnUse" x1="-61.375" y1="-398.6667" x2="-0.4973" y2="-398.6667" gradientTransform="matrix(4.489700e-011 1 -1 4.489700e-011 -368.6667 61.3333)">
	<stop  offset="0" style="stop-color:#F49C31"/>
	<stop  offset="1" style="stop-color:#103D96"/>
</linearGradient>
<circle fill="url(#SVGID_1_)" cx="30" cy="30" r="30.042"/>
<g>
	<path fill="#FFFFFF" d="M26.456,50.471h-0.002l0.001-1.766h0.001c1.025,0,1.62-1.309,1.94-2.408
		c1.217-4.191,0.145-9.547-0.568-10.417c-0.022,0.022-0.047,0.05-0.076,0.085c-2.256,2.713-5.182,4.411-7.28,4.225
		c-0.905-0.081-1.628-0.519-2.035-1.236c-0.513-0.904-0.777-2.212-1.032-3.477c-0.179-0.891-0.599-2.978-1.026-3.094
		c-0.772-0.211-1.604-0.917-2.071-1.757c-0.341-0.613-0.437-1.219-0.279-1.754c0.178-0.6,0.765-1.673,1.639-3.241
		c0.391-0.7,0.76-1.363,0.988-1.822c0.547-1.1,0.427-2.698,0.182-3.165c-0.603-1.146-0.743-6.204,0.399-7.522l1.334,1.156
		L17.905,13.7l0.668,0.577c-0.513,0.63-0.554,4.757-0.17,5.548c0.536,1.021,0.6,3.232-0.165,4.771
		c-0.247,0.497-0.626,1.176-1.026,1.895c-0.571,1.024-1.353,2.426-1.489,2.884c-0.061,0.272,0.592,1.16,1.122,1.305
		c1.477,0.404,1.873,2.369,2.292,4.449c0.228,1.128,0.463,2.295,0.836,2.953c0.075,0.131,0.224,0.311,0.656,0.349
		c1.255,0.116,3.701-1.111,5.766-3.596c0.895-1.077,1.787-0.797,2.127-0.626c2.209,1.102,2.631,8.146,1.726,11.986
		C29.414,49.728,27.726,50.47,26.456,50.471"/>
	<path fill="#FFFFFF" d="M42.469,17.454c1.648,3.507,0.983,9.871,0.739,16.563c-0.146,4.015-0.231,8.31-0.338,11.385
		c-0.054,1.564,0.496,3.091,0.557,4.107c0.35,5.831-12.724-3.111-13.754-7.23c-1.03-4.121-0.453-9.707-1.114-12.282
		c-0.663-2.575,3.163-12.803,3.163-12.803L42.469,17.454z"/>
	<path fill="#FFFFFF" d="M41.28,15.182c-4.709-6.671-10.955-6.696-15.174-4.586c0,0-8.86,0.241-9.466,2.551
		c-1.603,6.109-0.245,15.87,17.577,18.616l6.377,0.589C40.593,32.351,45.988,21.853,41.28,15.182z M25.092,19.318
		c0,0-1.973-4.825-1.976-6.908c0,0-1.303,0.647-2.263,2.164c0,0-0.212-0.915-0.078-1.575c0,0-2.123,0.268-2.949,1.125
		c0,0,0.119-0.954,1.26-1.516c1.142-0.562,4.701-1.499,6.044-1.347C26.178,11.378,24.515,16.406,25.092,19.318z M30.485,11.094
		c0,0,1.21,0.952,2.157,3.594c0,0-2.367-2.566-3.972-2.978l-1.554-0.265c0,0,3.334-1.923,5.244-1.296
		c0.621,0.204,5.445,2.239,6.655,6.424C39.015,16.573,33.724,11.589,30.485,11.094z"/>
</g>
</svg>
