<?xml version="1.0" encoding="utf-8"?>
<!-- Generator: Adobe Illustrator 17.0.0, SVG Export Plug-In . SVG Version: 6.00 Build 0)  -->
<!DOCTYPE svg PUBLIC "-//W3C//DTD SVG 1.1//EN" "http://www.w3.org/Graphics/SVG/1.1/DTD/svg11.dtd">
<svg version="1.1" id="图层_1" xmlns="http://www.w3.org/2000/svg" xmlns:xlink="http://www.w3.org/1999/xlink" x="0px" y="0px"
	 width="501.508px" height="143.382px" viewBox="0 0 501.508 143.382" enable-background="new 0 0 501.508 143.382"
	 xml:space="preserve">
<g>
	<path fill="#FFFFFF" d="M36.364,97.295L46.601,0H72.27l11.154,97.295h0.305L91.369,0h27.502L100.23,140.625H69.062l-9.473-94.538
		h-0.306l-9.473,94.538H18.641L0,0h27.502l8.556,97.295H36.364z"/>
	<path fill="#FFFFFF" d="M190.224,93.356h-40.795v13.984c0,9.586,2.471,14.377,7.413,14.377c5.143,0,7.714-6.17,7.714-18.514h24.752
		c-0.306,26.786-11.08,40.179-32.318,40.179c-13.111,0-22.233-4.201-27.366-12.605c-5.133-8.401-7.697-22.847-7.697-43.33
		c0-20.218,2.75-34.63,8.251-43.231c5.5-8.599,14.462-12.901,26.891-12.901c11.407,0,19.71,3.678,24.905,11.03
		c5.5,8.01,8.25,21.403,8.25,40.178V93.356z M164.556,74.055v-4.727c0-10.897-2.547-16.347-7.64-16.347
		c-4.992,0-7.487,5.45-7.487,16.347v4.727H164.556z"/>
	<path fill="#FFFFFF" d="M198.32,26.392V0h27.502v26.392H198.32z M198.32,140.625V34.073h27.502v106.552H198.32z"/>
	<path fill="#FFFFFF" d="M234.378,107.537h24.141c0,4.727,0.688,8.272,2.063,10.636c1.375,2.363,3.285,3.545,5.73,3.545
		c2.239,0,4.125-0.818,5.653-2.462c1.528-1.64,2.292-3.84,2.292-6.598c0-4.856-3.464-8.795-10.39-11.817
		c-10.492-4.727-16.859-8.075-19.099-10.044c-6.928-5.909-10.39-14.64-10.39-26.195c0-9.848,2.697-17.726,8.098-23.634
		c5.806-6.432,14.057-9.651,24.752-9.651c20.677,0,31.017,11.162,31.017,33.482h-23.835c0-7.878-2.444-11.817-7.334-11.817
		c-4.686,0-7.028,2.757-7.028,8.272c0,4.465,3.462,8.075,10.39,10.833c10.084,3.939,16.449,7.09,19.099,9.454
		c6.926,5.647,10.39,14.377,10.39,26.195c0,10.506-2.903,19.04-8.709,25.604c-6.112,6.696-14.263,10.044-24.447,10.044
		C245.173,143.382,234.378,131.436,234.378,107.537z"/>
	<path fill="#FFFFFF" d="M305.119,107.537h24.141c0,4.727,0.688,8.272,2.063,10.636c1.376,2.363,3.285,3.545,5.73,3.545
		c2.239,0,4.125-0.818,5.653-2.462c1.527-1.64,2.291-3.84,2.291-6.598c0-4.856-3.464-8.795-10.39-11.817
		c-10.492-4.727-16.859-8.075-19.099-10.044c-6.928-5.909-10.39-14.64-10.39-26.195c0-9.848,2.697-17.726,8.098-23.634
		c5.807-6.432,14.057-9.651,24.752-9.651c20.677,0,31.017,11.162,31.017,33.482H345.15c0-7.878-2.444-11.817-7.334-11.817
		c-4.687,0-7.028,2.757-7.028,8.272c0,4.465,3.462,8.075,10.39,10.833c10.084,3.939,16.449,7.09,19.099,9.454
		c6.926,5.647,10.39,14.377,10.39,26.195c0,10.506-2.902,19.04-8.709,25.604c-6.111,6.696-14.262,10.044-24.446,10.044
		C315.915,143.382,305.119,131.436,305.119,107.537z"/>
</g>
<g>
	<path fill="#FFFFFF" d="M425.724,140.625V0h41.254c14.768,0,24.649,7.09,29.641,21.271c3.259,9.454,4.89,25.801,4.89,49.042
		s-1.631,39.588-4.89,49.042c-4.991,14.181-14.873,21.271-29.641,21.271H425.724z M454.143,26.392v87.842h5.561
		c4.705,0,8.06-2.69,10.064-8.075c1.502-4.068,2.305-10.045,2.404-17.923c0,13.264,0,7.287,0-17.923s0-31.183,0-17.923
		c-0.1-7.878-0.902-13.852-2.404-17.923c-2.005-5.382-5.359-8.075-10.064-8.075H454.143z"/>
</g>
<rect x="391.001" y="70.88" fill="#FFFFFF" width="16" height="16"/>
</svg>
